<mxfile host="app.diagrams.net" modified="2023-12-06T08:47:22.426Z" agent="Mozilla/5.0 (Windows NT 10.0; Win64; x64) AppleWebKit/537.36 (KHTML, like Gecko) Chrome/119.0.0.0 Safari/537.36" etag="qfFjMOKnaLlUHfxEQkvc" version="22.1.5" type="google">
  <diagram id="C5RBs43oDa-KdzZeNtuy" name="Page-1">
    <mxGraphModel grid="1" page="1" gridSize="10" guides="1" tooltips="1" connect="1" arrows="1" fold="1" pageScale="1" pageWidth="827" pageHeight="1169" math="0" shadow="0">
      <root>
        <mxCell id="WIyWlLk6GJQsqaUBKTNV-0" />
        <mxCell id="WIyWlLk6GJQsqaUBKTNV-1" parent="WIyWlLk6GJQsqaUBKTNV-0" />
        <mxCell id="yc3ue20r2o8cmDpV99F--3" style="edgeStyle=orthogonalEdgeStyle;rounded=0;orthogonalLoop=1;jettySize=auto;html=1;entryX=0.5;entryY=0;entryDx=0;entryDy=0;" edge="1" parent="WIyWlLk6GJQsqaUBKTNV-1" source="yc3ue20r2o8cmDpV99F--0" target="yc3ue20r2o8cmDpV99F--2">
          <mxGeometry relative="1" as="geometry" />
        </mxCell>
        <mxCell id="yc3ue20r2o8cmDpV99F--0" value="เริ่ม" style="ellipse;whiteSpace=wrap;html=1;fillColor=#d5e8d4;strokeColor=#82b366;" vertex="1" parent="WIyWlLk6GJQsqaUBKTNV-1">
          <mxGeometry x="370" y="30" width="90" height="40" as="geometry" />
        </mxCell>
        <mxCell id="yc3ue20r2o8cmDpV99F--6" style="edgeStyle=orthogonalEdgeStyle;rounded=0;orthogonalLoop=1;jettySize=auto;html=1;entryX=0.5;entryY=0;entryDx=0;entryDy=0;" edge="1" parent="WIyWlLk6GJQsqaUBKTNV-1" source="yc3ue20r2o8cmDpV99F--1" target="yc3ue20r2o8cmDpV99F--12">
          <mxGeometry relative="1" as="geometry">
            <mxPoint x="415" y="340" as="targetPoint" />
          </mxGeometry>
        </mxCell>
        <mxCell id="yc3ue20r2o8cmDpV99F--7" value="ใช่" style="edgeLabel;html=1;align=center;verticalAlign=middle;resizable=0;points=[];" connectable="0" vertex="1" parent="yc3ue20r2o8cmDpV99F--6">
          <mxGeometry x="-0.19" y="1" relative="1" as="geometry">
            <mxPoint x="24" y="-4" as="offset" />
          </mxGeometry>
        </mxCell>
        <mxCell id="yc3ue20r2o8cmDpV99F--9" style="edgeStyle=orthogonalEdgeStyle;rounded=0;orthogonalLoop=1;jettySize=auto;html=1;entryX=0;entryY=0.5;entryDx=0;entryDy=0;" edge="1" parent="WIyWlLk6GJQsqaUBKTNV-1" source="yc3ue20r2o8cmDpV99F--1" target="yc3ue20r2o8cmDpV99F--8">
          <mxGeometry relative="1" as="geometry" />
        </mxCell>
        <mxCell id="yc3ue20r2o8cmDpV99F--10" value="ไม่ใช่" style="edgeLabel;html=1;align=center;verticalAlign=middle;resizable=0;points=[];" connectable="0" vertex="1" parent="yc3ue20r2o8cmDpV99F--9">
          <mxGeometry x="-0.1731" relative="1" as="geometry">
            <mxPoint y="-20" as="offset" />
          </mxGeometry>
        </mxCell>
        <mxCell id="yc3ue20r2o8cmDpV99F--1" value="มีข้อมูลใน&lt;br&gt;ระบบแล้ว" style="rhombus;whiteSpace=wrap;html=1;shadow=0;fontFamily=Helvetica;fontSize=12;align=center;strokeWidth=1;spacing=6;spacingTop=-4;fillColor=#fff2cc;strokeColor=#d6b656;" vertex="1" parent="WIyWlLk6GJQsqaUBKTNV-1">
          <mxGeometry x="365" y="210" width="100" height="80" as="geometry" />
        </mxCell>
        <mxCell id="yc3ue20r2o8cmDpV99F--4" style="edgeStyle=orthogonalEdgeStyle;rounded=0;orthogonalLoop=1;jettySize=auto;html=1;entryX=0.5;entryY=0;entryDx=0;entryDy=0;" edge="1" parent="WIyWlLk6GJQsqaUBKTNV-1" source="yc3ue20r2o8cmDpV99F--2" target="yc3ue20r2o8cmDpV99F--1">
          <mxGeometry relative="1" as="geometry" />
        </mxCell>
        <mxCell id="yc3ue20r2o8cmDpV99F--86" style="edgeStyle=orthogonalEdgeStyle;rounded=0;orthogonalLoop=1;jettySize=auto;html=1;entryX=1;entryY=0.5;entryDx=0;entryDy=0;dashed=1;" edge="1" parent="WIyWlLk6GJQsqaUBKTNV-1" source="yc3ue20r2o8cmDpV99F--2" target="yc3ue20r2o8cmDpV99F--72">
          <mxGeometry relative="1" as="geometry" />
        </mxCell>
        <mxCell id="yc3ue20r2o8cmDpV99F--2" value="เข้าสู่ระบบ" style="rounded=1;whiteSpace=wrap;html=1;fontSize=12;glass=0;strokeWidth=1;shadow=0;fillColor=#dae8fc;strokeColor=#6c8ebf;" vertex="1" parent="WIyWlLk6GJQsqaUBKTNV-1">
          <mxGeometry x="355" y="120" width="120" height="40" as="geometry" />
        </mxCell>
        <mxCell id="yc3ue20r2o8cmDpV99F--30" style="edgeStyle=orthogonalEdgeStyle;rounded=0;orthogonalLoop=1;jettySize=auto;html=1;entryX=0;entryY=0.5;entryDx=0;entryDy=0;" edge="1" parent="WIyWlLk6GJQsqaUBKTNV-1" source="yc3ue20r2o8cmDpV99F--5" target="yc3ue20r2o8cmDpV99F--31">
          <mxGeometry relative="1" as="geometry">
            <mxPoint x="530" y="560" as="targetPoint" />
          </mxGeometry>
        </mxCell>
        <mxCell id="yc3ue20r2o8cmDpV99F--41" style="edgeStyle=orthogonalEdgeStyle;rounded=0;orthogonalLoop=1;jettySize=auto;html=1;entryX=0.5;entryY=0;entryDx=0;entryDy=0;" edge="1" parent="WIyWlLk6GJQsqaUBKTNV-1" source="yc3ue20r2o8cmDpV99F--5" target="yc3ue20r2o8cmDpV99F--40">
          <mxGeometry relative="1" as="geometry" />
        </mxCell>
        <mxCell id="yc3ue20r2o8cmDpV99F--90" style="edgeStyle=orthogonalEdgeStyle;rounded=0;orthogonalLoop=1;jettySize=auto;html=1;entryX=0.5;entryY=1;entryDx=0;entryDy=0;dashed=1;" edge="1" parent="WIyWlLk6GJQsqaUBKTNV-1" source="yc3ue20r2o8cmDpV99F--5" target="yc3ue20r2o8cmDpV99F--88">
          <mxGeometry relative="1" as="geometry" />
        </mxCell>
        <mxCell id="yc3ue20r2o8cmDpV99F--5" value="แสดงรายการ Product ทั้งหมด" style="rounded=1;whiteSpace=wrap;html=1;fontSize=12;glass=0;strokeWidth=1;shadow=0;fillColor=#ffe6cc;strokeColor=#d79b00;" vertex="1" parent="WIyWlLk6GJQsqaUBKTNV-1">
          <mxGeometry x="355" y="540" width="120" height="40" as="geometry" />
        </mxCell>
        <mxCell id="yc3ue20r2o8cmDpV99F--11" style="edgeStyle=orthogonalEdgeStyle;rounded=0;orthogonalLoop=1;jettySize=auto;html=1;entryX=1;entryY=0.5;entryDx=0;entryDy=0;" edge="1" parent="WIyWlLk6GJQsqaUBKTNV-1" source="yc3ue20r2o8cmDpV99F--8" target="yc3ue20r2o8cmDpV99F--2">
          <mxGeometry relative="1" as="geometry">
            <Array as="points">
              <mxPoint x="720" y="250" />
              <mxPoint x="720" y="140" />
            </Array>
          </mxGeometry>
        </mxCell>
        <mxCell id="yc3ue20r2o8cmDpV99F--85" style="edgeStyle=orthogonalEdgeStyle;rounded=0;orthogonalLoop=1;jettySize=auto;html=1;entryX=0;entryY=0.5;entryDx=0;entryDy=0;dashed=1;" edge="1" parent="WIyWlLk6GJQsqaUBKTNV-1" source="yc3ue20r2o8cmDpV99F--8" target="yc3ue20r2o8cmDpV99F--75">
          <mxGeometry relative="1" as="geometry" />
        </mxCell>
        <mxCell id="yc3ue20r2o8cmDpV99F--8" value="สมัครสมาชิก" style="rounded=1;whiteSpace=wrap;html=1;fontSize=12;glass=0;strokeWidth=1;shadow=0;fillColor=#dae8fc;strokeColor=#6c8ebf;" vertex="1" parent="WIyWlLk6GJQsqaUBKTNV-1">
          <mxGeometry x="550" y="230" width="120" height="40" as="geometry" />
        </mxCell>
        <mxCell id="yc3ue20r2o8cmDpV99F--13" style="edgeStyle=orthogonalEdgeStyle;rounded=0;orthogonalLoop=1;jettySize=auto;html=1;entryX=0.5;entryY=0;entryDx=0;entryDy=0;exitX=0.5;exitY=1;exitDx=0;exitDy=0;" edge="1" parent="WIyWlLk6GJQsqaUBKTNV-1" source="yc3ue20r2o8cmDpV99F--12" target="yc3ue20r2o8cmDpV99F--5">
          <mxGeometry relative="1" as="geometry">
            <mxPoint x="415" y="470" as="sourcePoint" />
          </mxGeometry>
        </mxCell>
        <mxCell id="yc3ue20r2o8cmDpV99F--14" value="ใช่" style="edgeLabel;html=1;align=center;verticalAlign=middle;resizable=0;points=[];" connectable="0" vertex="1" parent="yc3ue20r2o8cmDpV99F--13">
          <mxGeometry x="-0.2489" y="1" relative="1" as="geometry">
            <mxPoint x="-36" y="-15" as="offset" />
          </mxGeometry>
        </mxCell>
        <mxCell id="yc3ue20r2o8cmDpV99F--19" style="edgeStyle=orthogonalEdgeStyle;rounded=0;orthogonalLoop=1;jettySize=auto;html=1;entryX=0;entryY=0.5;entryDx=0;entryDy=0;" edge="1" parent="WIyWlLk6GJQsqaUBKTNV-1" source="yc3ue20r2o8cmDpV99F--12" target="yc3ue20r2o8cmDpV99F--17">
          <mxGeometry relative="1" as="geometry" />
        </mxCell>
        <mxCell id="yc3ue20r2o8cmDpV99F--20" value="ไม่" style="edgeLabel;html=1;align=center;verticalAlign=middle;resizable=0;points=[];" connectable="0" vertex="1" parent="yc3ue20r2o8cmDpV99F--19">
          <mxGeometry x="-0.1137" y="1" relative="1" as="geometry">
            <mxPoint y="-9" as="offset" />
          </mxGeometry>
        </mxCell>
        <mxCell id="yc3ue20r2o8cmDpV99F--46" style="edgeStyle=orthogonalEdgeStyle;rounded=0;orthogonalLoop=1;jettySize=auto;html=1;entryX=0.5;entryY=0;entryDx=0;entryDy=0;" edge="1" parent="WIyWlLk6GJQsqaUBKTNV-1" source="yc3ue20r2o8cmDpV99F--12" target="yc3ue20r2o8cmDpV99F--45">
          <mxGeometry relative="1" as="geometry">
            <Array as="points">
              <mxPoint x="415" y="470" />
              <mxPoint x="100" y="470" />
            </Array>
          </mxGeometry>
        </mxCell>
        <mxCell id="yc3ue20r2o8cmDpV99F--12" value="ได้รับการ Approve" style="rhombus;whiteSpace=wrap;html=1;shadow=0;fontFamily=Helvetica;fontSize=12;align=center;strokeWidth=1;spacing=6;spacingTop=-4;fillColor=#fff2cc;strokeColor=#d6b656;" vertex="1" parent="WIyWlLk6GJQsqaUBKTNV-1">
          <mxGeometry x="365" y="340" width="100" height="80" as="geometry" />
        </mxCell>
        <mxCell id="yc3ue20r2o8cmDpV99F--21" style="edgeStyle=orthogonalEdgeStyle;rounded=0;orthogonalLoop=1;jettySize=auto;html=1;entryX=1;entryY=0.5;entryDx=0;entryDy=0;" edge="1" parent="WIyWlLk6GJQsqaUBKTNV-1" source="yc3ue20r2o8cmDpV99F--17" target="yc3ue20r2o8cmDpV99F--2">
          <mxGeometry relative="1" as="geometry">
            <Array as="points">
              <mxPoint x="720" y="380" />
              <mxPoint x="720" y="140" />
            </Array>
          </mxGeometry>
        </mxCell>
        <mxCell id="yc3ue20r2o8cmDpV99F--84" style="edgeStyle=orthogonalEdgeStyle;rounded=0;orthogonalLoop=1;jettySize=auto;html=1;entryX=0;entryY=0.5;entryDx=0;entryDy=0;dashed=1;" edge="1" parent="WIyWlLk6GJQsqaUBKTNV-1" source="yc3ue20r2o8cmDpV99F--17" target="yc3ue20r2o8cmDpV99F--76">
          <mxGeometry relative="1" as="geometry" />
        </mxCell>
        <mxCell id="yc3ue20r2o8cmDpV99F--17" value="รอ Approve" style="rounded=1;whiteSpace=wrap;html=1;fontSize=12;glass=0;strokeWidth=1;shadow=0;fillColor=#e1d5e7;strokeColor=#9673a6;" vertex="1" parent="WIyWlLk6GJQsqaUBKTNV-1">
          <mxGeometry x="550" y="360" width="120" height="40" as="geometry" />
        </mxCell>
        <mxCell id="yc3ue20r2o8cmDpV99F--36" style="edgeStyle=orthogonalEdgeStyle;rounded=0;orthogonalLoop=1;jettySize=auto;html=1;entryX=0;entryY=0.5;entryDx=0;entryDy=0;" edge="1" parent="WIyWlLk6GJQsqaUBKTNV-1" source="yc3ue20r2o8cmDpV99F--31" target="yc3ue20r2o8cmDpV99F--32">
          <mxGeometry relative="1" as="geometry" />
        </mxCell>
        <mxCell id="yc3ue20r2o8cmDpV99F--37" style="edgeStyle=orthogonalEdgeStyle;rounded=0;orthogonalLoop=1;jettySize=auto;html=1;entryX=0;entryY=0.5;entryDx=0;entryDy=0;" edge="1" parent="WIyWlLk6GJQsqaUBKTNV-1" source="yc3ue20r2o8cmDpV99F--31" target="yc3ue20r2o8cmDpV99F--33">
          <mxGeometry relative="1" as="geometry" />
        </mxCell>
        <mxCell id="yc3ue20r2o8cmDpV99F--38" style="edgeStyle=orthogonalEdgeStyle;rounded=0;orthogonalLoop=1;jettySize=auto;html=1;entryX=0;entryY=0.5;entryDx=0;entryDy=0;" edge="1" parent="WIyWlLk6GJQsqaUBKTNV-1" source="yc3ue20r2o8cmDpV99F--31" target="yc3ue20r2o8cmDpV99F--34">
          <mxGeometry relative="1" as="geometry" />
        </mxCell>
        <mxCell id="yc3ue20r2o8cmDpV99F--31" value="" style="ellipse;whiteSpace=wrap;html=1;aspect=fixed;fillColor=#f5f5f5;fontColor=#333333;strokeColor=#666666;" vertex="1" parent="WIyWlLk6GJQsqaUBKTNV-1">
          <mxGeometry x="560" y="550" width="20" height="20" as="geometry" />
        </mxCell>
        <mxCell id="yc3ue20r2o8cmDpV99F--32" value="เพิ่มรายการ Product" style="rounded=1;whiteSpace=wrap;html=1;fontSize=12;glass=0;strokeWidth=1;shadow=0;" vertex="1" parent="WIyWlLk6GJQsqaUBKTNV-1">
          <mxGeometry x="700" y="480" width="120" height="40" as="geometry" />
        </mxCell>
        <mxCell id="yc3ue20r2o8cmDpV99F--33" value="แก้ไขรายการ Product" style="rounded=1;whiteSpace=wrap;html=1;fontSize=12;glass=0;strokeWidth=1;shadow=0;" vertex="1" parent="WIyWlLk6GJQsqaUBKTNV-1">
          <mxGeometry x="700" y="540" width="120" height="40" as="geometry" />
        </mxCell>
        <mxCell id="yc3ue20r2o8cmDpV99F--83" style="edgeStyle=orthogonalEdgeStyle;rounded=0;orthogonalLoop=1;jettySize=auto;html=1;entryX=0;entryY=0.5;entryDx=0;entryDy=0;dashed=1;" edge="1" parent="WIyWlLk6GJQsqaUBKTNV-1" source="yc3ue20r2o8cmDpV99F--34" target="yc3ue20r2o8cmDpV99F--80">
          <mxGeometry relative="1" as="geometry" />
        </mxCell>
        <mxCell id="yc3ue20r2o8cmDpV99F--34" value="ลบราย Product" style="rounded=1;whiteSpace=wrap;html=1;fontSize=12;glass=0;strokeWidth=1;shadow=0;fillColor=#dae8fc;strokeColor=#6c8ebf;" vertex="1" parent="WIyWlLk6GJQsqaUBKTNV-1">
          <mxGeometry x="700" y="600" width="120" height="40" as="geometry" />
        </mxCell>
        <mxCell id="yc3ue20r2o8cmDpV99F--43" style="edgeStyle=orthogonalEdgeStyle;rounded=0;orthogonalLoop=1;jettySize=auto;html=1;entryX=0.5;entryY=0;entryDx=0;entryDy=0;" edge="1" parent="WIyWlLk6GJQsqaUBKTNV-1" source="yc3ue20r2o8cmDpV99F--40" target="yc3ue20r2o8cmDpV99F--42">
          <mxGeometry relative="1" as="geometry" />
        </mxCell>
        <mxCell id="yc3ue20r2o8cmDpV99F--92" style="edgeStyle=orthogonalEdgeStyle;rounded=0;orthogonalLoop=1;jettySize=auto;html=1;entryX=1;entryY=0.5;entryDx=0;entryDy=0;dashed=1;" edge="1" parent="WIyWlLk6GJQsqaUBKTNV-1" source="yc3ue20r2o8cmDpV99F--40" target="yc3ue20r2o8cmDpV99F--91">
          <mxGeometry relative="1" as="geometry" />
        </mxCell>
        <mxCell id="yc3ue20r2o8cmDpV99F--40" value="ดูรายการ Product 1 รายการ" style="rounded=1;whiteSpace=wrap;html=1;fontSize=12;glass=0;strokeWidth=1;shadow=0;fillColor=#ffe6cc;strokeColor=#d79b00;" vertex="1" parent="WIyWlLk6GJQsqaUBKTNV-1">
          <mxGeometry x="350" y="650" width="130" height="40" as="geometry" />
        </mxCell>
        <mxCell id="yc3ue20r2o8cmDpV99F--57" style="edgeStyle=orthogonalEdgeStyle;rounded=0;orthogonalLoop=1;jettySize=auto;html=1;entryX=0.5;entryY=0;entryDx=0;entryDy=0;" edge="1" parent="WIyWlLk6GJQsqaUBKTNV-1" source="yc3ue20r2o8cmDpV99F--42" target="yc3ue20r2o8cmDpV99F--47">
          <mxGeometry relative="1" as="geometry" />
        </mxCell>
        <mxCell id="yc3ue20r2o8cmDpV99F--95" style="edgeStyle=orthogonalEdgeStyle;rounded=0;orthogonalLoop=1;jettySize=auto;html=1;entryX=0;entryY=0.5;entryDx=0;entryDy=0;dashed=1;" edge="1" parent="WIyWlLk6GJQsqaUBKTNV-1" source="yc3ue20r2o8cmDpV99F--42" target="yc3ue20r2o8cmDpV99F--93">
          <mxGeometry relative="1" as="geometry" />
        </mxCell>
        <mxCell id="yc3ue20r2o8cmDpV99F--42" value="แสดง Order ทั้งหมดของ Product" style="rounded=1;whiteSpace=wrap;html=1;fontSize=12;glass=0;strokeWidth=1;shadow=0;fillColor=#ffe6cc;strokeColor=#d79b00;" vertex="1" parent="WIyWlLk6GJQsqaUBKTNV-1">
          <mxGeometry x="350" y="760" width="130" height="40" as="geometry" />
        </mxCell>
        <mxCell id="yc3ue20r2o8cmDpV99F--69" style="edgeStyle=orthogonalEdgeStyle;rounded=0;orthogonalLoop=1;jettySize=auto;html=1;entryX=0;entryY=0.5;entryDx=0;entryDy=0;" edge="1" parent="WIyWlLk6GJQsqaUBKTNV-1" source="yc3ue20r2o8cmDpV99F--45" target="yc3ue20r2o8cmDpV99F--66">
          <mxGeometry relative="1" as="geometry">
            <Array as="points">
              <mxPoint x="100" y="1280" />
            </Array>
          </mxGeometry>
        </mxCell>
        <mxCell id="yc3ue20r2o8cmDpV99F--89" style="edgeStyle=orthogonalEdgeStyle;rounded=0;orthogonalLoop=1;jettySize=auto;html=1;entryX=1;entryY=0.5;entryDx=0;entryDy=0;dashed=1;" edge="1" parent="WIyWlLk6GJQsqaUBKTNV-1" source="yc3ue20r2o8cmDpV99F--45" target="yc3ue20r2o8cmDpV99F--87">
          <mxGeometry relative="1" as="geometry" />
        </mxCell>
        <mxCell id="yc3ue20r2o8cmDpV99F--45" value="แสดง Order ทุกรายการ" style="rounded=1;whiteSpace=wrap;html=1;fontSize=12;glass=0;strokeWidth=1;shadow=0;fillColor=#ffe6cc;strokeColor=#d79b00;" vertex="1" parent="WIyWlLk6GJQsqaUBKTNV-1">
          <mxGeometry x="40" y="540" width="120" height="40" as="geometry" />
        </mxCell>
        <mxCell id="yc3ue20r2o8cmDpV99F--59" style="edgeStyle=orthogonalEdgeStyle;rounded=0;orthogonalLoop=1;jettySize=auto;html=1;entryX=0.5;entryY=0;entryDx=0;entryDy=0;" edge="1" parent="WIyWlLk6GJQsqaUBKTNV-1" source="yc3ue20r2o8cmDpV99F--47" target="yc3ue20r2o8cmDpV99F--56">
          <mxGeometry relative="1" as="geometry" />
        </mxCell>
        <mxCell id="yc3ue20r2o8cmDpV99F--47" value="เพิ่ม Order ใน Product" style="rounded=1;whiteSpace=wrap;html=1;fontSize=12;glass=0;strokeWidth=1;shadow=0;fillColor=#dae8fc;strokeColor=#6c8ebf;" vertex="1" parent="WIyWlLk6GJQsqaUBKTNV-1">
          <mxGeometry x="350" y="870" width="130" height="40" as="geometry" />
        </mxCell>
        <mxCell id="yc3ue20r2o8cmDpV99F--61" style="edgeStyle=orthogonalEdgeStyle;rounded=0;orthogonalLoop=1;jettySize=auto;html=1;entryX=0;entryY=0.5;entryDx=0;entryDy=0;" edge="1" parent="WIyWlLk6GJQsqaUBKTNV-1" source="yc3ue20r2o8cmDpV99F--56" target="yc3ue20r2o8cmDpV99F--60">
          <mxGeometry relative="1" as="geometry" />
        </mxCell>
        <mxCell id="yc3ue20r2o8cmDpV99F--71" value="ไม่" style="edgeLabel;html=1;align=center;verticalAlign=middle;resizable=0;points=[];" connectable="0" vertex="1" parent="yc3ue20r2o8cmDpV99F--61">
          <mxGeometry x="-0.0743" relative="1" as="geometry">
            <mxPoint y="-10" as="offset" />
          </mxGeometry>
        </mxCell>
        <mxCell id="yc3ue20r2o8cmDpV99F--65" style="edgeStyle=orthogonalEdgeStyle;rounded=0;orthogonalLoop=1;jettySize=auto;html=1;entryX=0.5;entryY=0;entryDx=0;entryDy=0;" edge="1" parent="WIyWlLk6GJQsqaUBKTNV-1" source="yc3ue20r2o8cmDpV99F--56" target="yc3ue20r2o8cmDpV99F--64">
          <mxGeometry relative="1" as="geometry" />
        </mxCell>
        <mxCell id="yc3ue20r2o8cmDpV99F--70" value="ใช่" style="edgeLabel;html=1;align=center;verticalAlign=middle;resizable=0;points=[];" connectable="0" vertex="1" parent="yc3ue20r2o8cmDpV99F--65">
          <mxGeometry x="-0.0812" relative="1" as="geometry">
            <mxPoint x="15" as="offset" />
          </mxGeometry>
        </mxCell>
        <mxCell id="yc3ue20r2o8cmDpV99F--56" value="Order ไม่เกินกว่าใน &lt;br&gt;Stock Product&amp;nbsp;" style="rhombus;whiteSpace=wrap;html=1;shadow=0;fontFamily=Helvetica;fontSize=12;align=center;strokeWidth=1;spacing=6;spacingTop=-4;fillColor=#fff2cc;strokeColor=#d6b656;" vertex="1" parent="WIyWlLk6GJQsqaUBKTNV-1">
          <mxGeometry x="347.5" y="980" width="135" height="100" as="geometry" />
        </mxCell>
        <mxCell id="yc3ue20r2o8cmDpV99F--67" style="edgeStyle=orthogonalEdgeStyle;rounded=0;orthogonalLoop=1;jettySize=auto;html=1;entryX=1;entryY=0.5;entryDx=0;entryDy=0;" edge="1" parent="WIyWlLk6GJQsqaUBKTNV-1" source="yc3ue20r2o8cmDpV99F--60" target="yc3ue20r2o8cmDpV99F--66">
          <mxGeometry relative="1" as="geometry">
            <Array as="points">
              <mxPoint x="640" y="1280" />
            </Array>
          </mxGeometry>
        </mxCell>
        <mxCell id="yc3ue20r2o8cmDpV99F--60" value="ไม่สามารถเพิ่ม Order ได้" style="rounded=1;whiteSpace=wrap;html=1;fontSize=12;glass=0;strokeWidth=1;shadow=0;fillColor=#f8cecc;strokeColor=#b85450;" vertex="1" parent="WIyWlLk6GJQsqaUBKTNV-1">
          <mxGeometry x="570" y="1010" width="130" height="40" as="geometry" />
        </mxCell>
        <mxCell id="yc3ue20r2o8cmDpV99F--68" style="edgeStyle=orthogonalEdgeStyle;rounded=0;orthogonalLoop=1;jettySize=auto;html=1;entryX=0.5;entryY=0;entryDx=0;entryDy=0;" edge="1" parent="WIyWlLk6GJQsqaUBKTNV-1" source="yc3ue20r2o8cmDpV99F--64" target="yc3ue20r2o8cmDpV99F--66">
          <mxGeometry relative="1" as="geometry" />
        </mxCell>
        <mxCell id="hpOHP29Kz4U3IoSEyMz3-1" style="edgeStyle=orthogonalEdgeStyle;rounded=0;orthogonalLoop=1;jettySize=auto;html=1;entryX=0;entryY=0.5;entryDx=0;entryDy=0;dashed=1;exitX=1;exitY=0.5;exitDx=0;exitDy=0;" edge="1" parent="WIyWlLk6GJQsqaUBKTNV-1" source="yc3ue20r2o8cmDpV99F--47" target="hpOHP29Kz4U3IoSEyMz3-0">
          <mxGeometry relative="1" as="geometry">
            <Array as="points">
              <mxPoint x="520" y="890" />
              <mxPoint x="520" y="890" />
            </Array>
          </mxGeometry>
        </mxCell>
        <mxCell id="yc3ue20r2o8cmDpV99F--64" value="บันทึก Order" style="rounded=1;whiteSpace=wrap;html=1;fontSize=12;glass=0;strokeWidth=1;shadow=0;fillColor=#f8cecc;strokeColor=#b85450;" vertex="1" parent="WIyWlLk6GJQsqaUBKTNV-1">
          <mxGeometry x="350" y="1150" width="130" height="40" as="geometry" />
        </mxCell>
        <mxCell id="yc3ue20r2o8cmDpV99F--66" value="สิ้นสุด" style="ellipse;whiteSpace=wrap;html=1;fillColor=#d5e8d4;strokeColor=#82b366;" vertex="1" parent="WIyWlLk6GJQsqaUBKTNV-1">
          <mxGeometry x="370" y="1260" width="90" height="40" as="geometry" />
        </mxCell>
        <mxCell id="yc3ue20r2o8cmDpV99F--72" value="[POST] /api/v1/login" style="rounded=1;whiteSpace=wrap;html=1;fontSize=12;glass=0;strokeWidth=1;shadow=0;dashed=1;fillColor=#FFFFFF;" vertex="1" parent="WIyWlLk6GJQsqaUBKTNV-1">
          <mxGeometry x="115" y="120" width="170" height="40" as="geometry" />
        </mxCell>
        <mxCell id="yc3ue20r2o8cmDpV99F--81" style="edgeStyle=orthogonalEdgeStyle;rounded=0;orthogonalLoop=1;jettySize=auto;html=1;entryX=0;entryY=0.5;entryDx=0;entryDy=0;dashed=1;" edge="1" parent="WIyWlLk6GJQsqaUBKTNV-1" source="yc3ue20r2o8cmDpV99F--73" target="yc3ue20r2o8cmDpV99F--77">
          <mxGeometry relative="1" as="geometry" />
        </mxCell>
        <mxCell id="yc3ue20r2o8cmDpV99F--73" value="เพิ่มรายการ Product" style="rounded=1;whiteSpace=wrap;html=1;fontSize=12;glass=0;strokeWidth=1;shadow=0;fillColor=#dae8fc;strokeColor=#6c8ebf;" vertex="1" parent="WIyWlLk6GJQsqaUBKTNV-1">
          <mxGeometry x="700" y="480" width="120" height="40" as="geometry" />
        </mxCell>
        <mxCell id="yc3ue20r2o8cmDpV99F--82" style="edgeStyle=orthogonalEdgeStyle;rounded=0;orthogonalLoop=1;jettySize=auto;html=1;entryX=0;entryY=0.5;entryDx=0;entryDy=0;dashed=1;" edge="1" parent="WIyWlLk6GJQsqaUBKTNV-1" source="yc3ue20r2o8cmDpV99F--74" target="yc3ue20r2o8cmDpV99F--79">
          <mxGeometry relative="1" as="geometry" />
        </mxCell>
        <mxCell id="yc3ue20r2o8cmDpV99F--74" value="แก้ไขรายการ Product" style="rounded=1;whiteSpace=wrap;html=1;fontSize=12;glass=0;strokeWidth=1;shadow=0;fillColor=#dae8fc;strokeColor=#6c8ebf;" vertex="1" parent="WIyWlLk6GJQsqaUBKTNV-1">
          <mxGeometry x="700" y="540" width="120" height="40" as="geometry" />
        </mxCell>
        <mxCell id="yc3ue20r2o8cmDpV99F--75" value="[POST] /api/v1/register" style="rounded=1;whiteSpace=wrap;html=1;fontSize=12;glass=0;strokeWidth=1;shadow=0;dashed=1;fillColor=#FFFFFF;" vertex="1" parent="WIyWlLk6GJQsqaUBKTNV-1">
          <mxGeometry x="780" y="230" width="170" height="40" as="geometry" />
        </mxCell>
        <mxCell id="yc3ue20r2o8cmDpV99F--76" value="[PUT] /api/v1/approve/:id" style="rounded=1;whiteSpace=wrap;html=1;fontSize=12;glass=0;strokeWidth=1;shadow=0;dashed=1;fillColor=#FFFFFF;" vertex="1" parent="WIyWlLk6GJQsqaUBKTNV-1">
          <mxGeometry x="780" y="360" width="170" height="40" as="geometry" />
        </mxCell>
        <mxCell id="yc3ue20r2o8cmDpV99F--77" value="[POST] /api/v1/products" style="rounded=1;whiteSpace=wrap;html=1;fontSize=12;glass=0;strokeWidth=1;shadow=0;dashed=1;fillColor=#FFFFFF;" vertex="1" parent="WIyWlLk6GJQsqaUBKTNV-1">
          <mxGeometry x="890" y="480" width="170" height="40" as="geometry" />
        </mxCell>
        <mxCell id="yc3ue20r2o8cmDpV99F--79" value="[PUT] /api/v1/products/:id" style="rounded=1;whiteSpace=wrap;html=1;fontSize=12;glass=0;strokeWidth=1;shadow=0;dashed=1;fillColor=#FFFFFF;" vertex="1" parent="WIyWlLk6GJQsqaUBKTNV-1">
          <mxGeometry x="890" y="540" width="170" height="40" as="geometry" />
        </mxCell>
        <mxCell id="yc3ue20r2o8cmDpV99F--80" value="[DELETE] /api/v1/products/:id" style="rounded=1;whiteSpace=wrap;html=1;fontSize=12;glass=0;strokeWidth=1;shadow=0;dashed=1;fillColor=#FFFFFF;" vertex="1" parent="WIyWlLk6GJQsqaUBKTNV-1">
          <mxGeometry x="890" y="600" width="170" height="40" as="geometry" />
        </mxCell>
        <mxCell id="yc3ue20r2o8cmDpV99F--87" value="[GET] /api/v1/orders" style="rounded=1;whiteSpace=wrap;html=1;fontSize=12;glass=0;strokeWidth=1;shadow=0;dashed=1;fillColor=#FFFFFF;" vertex="1" parent="WIyWlLk6GJQsqaUBKTNV-1">
          <mxGeometry x="-200" y="540" width="170" height="40" as="geometry" />
        </mxCell>
        <mxCell id="yc3ue20r2o8cmDpV99F--88" value="[GET] /api/v1/products" style="rounded=1;whiteSpace=wrap;html=1;fontSize=12;glass=0;strokeWidth=1;shadow=0;dashed=1;fillColor=#FFFFFF;" vertex="1" parent="WIyWlLk6GJQsqaUBKTNV-1">
          <mxGeometry x="170" y="490" width="170" height="40" as="geometry" />
        </mxCell>
        <mxCell id="yc3ue20r2o8cmDpV99F--91" value="[GET] /api/v1/products/:id" style="rounded=1;whiteSpace=wrap;html=1;fontSize=12;glass=0;strokeWidth=1;shadow=0;dashed=1;fillColor=#FFFFFF;" vertex="1" parent="WIyWlLk6GJQsqaUBKTNV-1">
          <mxGeometry x="140" y="650" width="170" height="40" as="geometry" />
        </mxCell>
        <mxCell id="yc3ue20r2o8cmDpV99F--93" value="[GET] /api/v1/products/:id/orders" style="rounded=1;whiteSpace=wrap;html=1;fontSize=12;glass=0;strokeWidth=1;shadow=0;dashed=1;fillColor=#FFFFFF;" vertex="1" parent="WIyWlLk6GJQsqaUBKTNV-1">
          <mxGeometry x="560" y="760" width="220" height="40" as="geometry" />
        </mxCell>
        <mxCell id="hpOHP29Kz4U3IoSEyMz3-0" value="[POST] /api/v1/products/:id/orders" style="rounded=1;whiteSpace=wrap;html=1;fontSize=12;glass=0;strokeWidth=1;shadow=0;dashed=1;fillColor=#FFFFFF;" vertex="1" parent="WIyWlLk6GJQsqaUBKTNV-1">
          <mxGeometry x="543.75" y="870" width="252.5" height="40" as="geometry" />
        </mxCell>
      </root>
    </mxGraphModel>
  </diagram>
</mxfile>
